<svg id="Layer_1" data-name="Layer 1" xmlns="http://www.w3.org/2000/svg" viewBox="0 0 628.97 800"><defs><style>.cls-1{fill:#010101;}</style></defs><polygon class="cls-1" points="24.26 142.04 84.14 230.1 107.24 230.1 94.64 256.36 240.62 279.47 283.68 373.99 257.42 389.74 307.83 450.65 316.24 524.17 244.82 529.42 176.56 509.47 95.69 591.38 100.94 600.84 93.36 608.88 92.86 661.84 120.58 668.77 140.87 646.49 128.99 620.75 199.28 571.75 288.37 595.51 331.44 623.23 370.54 606.9 377.47 617.78 369.55 637.09 362.12 677.68 395.78 697.97 423.99 672.23 451.22 616.79 483.88 622.24 530.41 689.06 473.99 746.97 451.71 738.56 429.44 751.92 444.78 785.58 482.4 771.23 490.81 785.58 594.76 705.39 522 559.87 458.64 482.16 436.86 332.19 433.4 180.73 263.63 93.62 256.69 101.53 228.98 58.47 208.19 14.42 172.06 31.25 208.19 116.38 223.53 129.25 215.61 141.13 362.62 226.76 370.04 333.18 338.37 351.49 284.91 228.25 129.49 195.08 52.77 131.73 46.34 119.35 24.26 142.04"/></svg>