<svg id="Layer_1" data-name="Layer 1" xmlns="http://www.w3.org/2000/svg" viewBox="0 0 628.97 708.35"><defs><style>.cls-1{fill:#010101;}</style></defs><polygon class="cls-1" points="24.04 126.22 53.78 93.84 130.44 35.02 135.07 39.01 147.44 31.4 163.32 31.4 190.97 36.24 190.97 59.22 172.48 71.37 153.04 57.73 145.94 62.77 145.76 78.81 84.26 125.08 115.48 175.04 144.43 171.06 155.78 171.35 143.01 112.88 186.72 95.57 190.97 100.68 202.61 138.99 207.72 163.97 189.84 178.16 216.24 197.74 245.18 188.94 295.83 258.09 316.93 189.55 329.33 196.06 329.33 186.45 321.58 175.28 329.33 137.45 361.28 154.5 314.04 308.19 326.05 320.55 409.14 271.69 544.24 359.62 534.81 369.64 550.33 369.64 581.49 348.94 592.87 347.57 604.93 359.41 538.28 434.34 509.78 393.88 495.07 412.73 385.66 350.21 308.44 400.78 347.97 506.97 258.75 636.52 286.17 663.94 282.01 680.55 190.64 645.66 223.03 596.65 208.08 580.87 291.98 490.32 250.99 404.76 223.86 427.19 208.08 396.45 190.64 408.91 144.12 385.65 183.16 334.15 143.29 261.88 85.14 217.02 24.04 126.22"/></svg>